# xmcd CD database file
#
# Track frame offsets:
#	150
#	30375
#	85702
#	119950
#	162580
#	207005
#	254050
#
# Disc length: 4581 seconds
#
# Revision: 68
# Processed by: cddbd v1.5.2PL0 Copyright (c) Steve Scherf et al.
# Submitted via: CDex 1.70beta3
#
DISCID=5f11e307
DTITLE=ディープ・パープル - Made In Japan ： 25th Anniversary Edition CD1
DYEAR=1998
DGENRE=Hard Rock
TTITLE0=ハイウェイ・スター
TTITLE1=チャイルド・イン・タイム
TTITLE2=スモーク・オン・ザ・ウォーター
TTITLE3=ミュール
TTITLE4=ストレンジ・ウーマン
TTITLE5=レイジー
TTITLE6=スペース・トラッキン
EXTD=YEAR: 1998
EXTT0=
EXTT1=
EXTT2=
EXTT3=
EXTT4=
EXTT5=
EXTT6=
PLAYORDER=
